<svg xmlns="http://www.w3.org/2000/svg" viewBox="0 0 256 256">
  <rect x="28" y="28" width="200" height="200" rx="8" ry="8" fill="#333"/>
  <rect x="36" y="36" width="56" height="56" rx="4" ry="4" fill="#fff"/>
  <rect x="100" y="36" width="56" height="56" rx="4" ry="4" fill="#fff"/>
  <rect x="164" y="36" width="56" height="56" rx="4" ry="4" fill="#fff"/>
  <rect x="36" y="100" width="56" height="56" rx="4" ry="4" fill="#fff"/>
  <rect x="100" y="100" width="56" height="56" rx="4" ry="4" fill="#fff"/>
  <rect x="164" y="100" width="56" height="56" rx="4" ry="4" fill="#fff"/>
  <rect x="36" y="164" width="56" height="56" rx="4" ry="4" fill="#fff"/>
  <rect x="100" y="164" width="56" height="56" rx="4" ry="4" fill="#fff"/>
  <rect x="164" y="164" width="56" height="56" rx="4" ry="4" fill="#fff"/>
  <text font-family="sans-serif" font-size="16" text-anchor="middle" dominant-baseline="middle" x="192" y="66" fill="#333">X</text>
  <text font-family="sans-serif" font-size="16" text-anchor="middle" dominant-baseline="middle" x="64" y="130" fill="#333">O</text>
  <text font-family="sans-serif" font-size="16" text-anchor="middle" dominant-baseline="middle" x="128" y="130" fill="#333">X</text>
  <text font-family="sans-serif" font-size="16" text-anchor="middle" dominant-baseline="middle" x="192" y="130" fill="#333">O</text>
</svg>
